<mxfile host="app.diagrams.net" modified="2024-04-12T22:55:12.313Z" agent="Mozilla/5.0 (X11; Ubuntu; Linux x86_64; rv:124.0) Gecko/20100101 Firefox/124.0" etag="eNq_ZUg4LAACBnhBGHAf" version="24.2.5" type="device">
  <diagram id="qWE5lsvEMqmcxGq6ise9" name="Page-1">
    <mxGraphModel dx="1348" dy="795" grid="1" gridSize="10" guides="1" tooltips="1" connect="1" arrows="1" fold="1" page="1" pageScale="1" pageWidth="850" pageHeight="1100" math="0" shadow="0">
      <root>
        <mxCell id="0" />
        <mxCell id="1" parent="0" />
        <mxCell id="H1Y1sEMktW7jtWNXkw4q-1" value="" style="rounded=0;whiteSpace=wrap;html=1;" vertex="1" parent="1">
          <mxGeometry x="20" y="160" width="820" height="430" as="geometry" />
        </mxCell>
        <mxCell id="zgFBOHbYYg9-DIr8KNFz-20" value="Очередь из обработанных масок" style="rounded=0;whiteSpace=wrap;html=1;" parent="1" vertex="1">
          <mxGeometry x="420" y="320" width="90" height="90" as="geometry" />
        </mxCell>
        <mxCell id="zgFBOHbYYg9-DIr8KNFz-2" value="clk_i" style="edgeStyle=orthogonalEdgeStyle;rounded=0;orthogonalLoop=1;jettySize=auto;html=1;exitX=0.25;exitY=0;exitDx=0;exitDy=0;startArrow=classic;startFill=1;endArrow=none;endFill=0;" parent="1" source="zgFBOHbYYg9-DIr8KNFz-1" edge="1">
          <mxGeometry relative="1" as="geometry">
            <mxPoint x="300" y="168" as="targetPoint" />
          </mxGeometry>
        </mxCell>
        <mxCell id="zgFBOHbYYg9-DIr8KNFz-3" value="rst_in" style="edgeStyle=orthogonalEdgeStyle;rounded=0;orthogonalLoop=1;jettySize=auto;html=1;exitX=0.75;exitY=0;exitDx=0;exitDy=0;startArrow=classic;startFill=1;endArrow=none;endFill=0;" parent="1" source="zgFBOHbYYg9-DIr8KNFz-1" edge="1">
          <mxGeometry relative="1" as="geometry">
            <mxPoint x="630" y="170" as="targetPoint" />
            <Array as="points">
              <mxPoint x="630" y="180" />
              <mxPoint x="630" y="180" />
            </Array>
          </mxGeometry>
        </mxCell>
        <mxCell id="zgFBOHbYYg9-DIr8KNFz-6" value="ready_o" style="edgeStyle=orthogonalEdgeStyle;rounded=0;orthogonalLoop=1;jettySize=auto;html=1;exitX=0.75;exitY=1;exitDx=0;exitDy=0;" parent="1" source="zgFBOHbYYg9-DIr8KNFz-1" edge="1">
          <mxGeometry x="-0.208" relative="1" as="geometry">
            <mxPoint x="630" y="580" as="targetPoint" />
            <mxPoint as="offset" />
          </mxGeometry>
        </mxCell>
        <mxCell id="zgFBOHbYYg9-DIr8KNFz-8" value="id_o" style="edgeStyle=orthogonalEdgeStyle;rounded=0;orthogonalLoop=1;jettySize=auto;html=1;exitX=0.25;exitY=1;exitDx=0;exitDy=0;" parent="1" source="zgFBOHbYYg9-DIr8KNFz-1" edge="1">
          <mxGeometry x="-0.208" relative="1" as="geometry">
            <mxPoint x="300" y="580" as="targetPoint" />
            <mxPoint as="offset" />
          </mxGeometry>
        </mxCell>
        <mxCell id="zgFBOHbYYg9-DIr8KNFz-13" value="requests_mask" style="edgeStyle=orthogonalEdgeStyle;rounded=0;orthogonalLoop=1;jettySize=auto;html=1;exitX=0;exitY=0.25;exitDx=0;exitDy=0;startArrow=classic;startFill=1;endArrow=none;endFill=0;align=left;" parent="1" source="zgFBOHbYYg9-DIr8KNFz-1" edge="1">
          <mxGeometry x="0.819" relative="1" as="geometry">
            <mxPoint x="29" y="295" as="targetPoint" />
            <mxPoint as="offset" />
          </mxGeometry>
        </mxCell>
        <mxCell id="zgFBOHbYYg9-DIr8KNFz-1" value="&amp;nbsp;" style="rounded=1;whiteSpace=wrap;html=1;fillColor=none;glass=0;" parent="1" vertex="1">
          <mxGeometry x="135" y="215" width="660" height="320" as="geometry" />
        </mxCell>
        <mxCell id="zgFBOHbYYg9-DIr8KNFz-9" value="" style="endArrow=none;html=1;rounded=0;" parent="1" edge="1">
          <mxGeometry width="50" height="50" relative="1" as="geometry">
            <mxPoint x="295" y="571" as="sourcePoint" />
            <mxPoint x="305" y="561" as="targetPoint" />
          </mxGeometry>
        </mxCell>
        <mxCell id="zgFBOHbYYg9-DIr8KNFz-14" value="" style="endArrow=none;html=1;rounded=0;" parent="1" edge="1">
          <mxGeometry width="50" height="50" relative="1" as="geometry">
            <mxPoint x="115" y="301" as="sourcePoint" />
            <mxPoint x="125" y="291" as="targetPoint" />
          </mxGeometry>
        </mxCell>
        <mxCell id="zgFBOHbYYg9-DIr8KNFz-15" value="last_i" style="edgeStyle=orthogonalEdgeStyle;rounded=0;orthogonalLoop=1;jettySize=auto;html=1;exitX=-0.003;exitY=0.685;exitDx=0;exitDy=0;startArrow=classic;startFill=1;endArrow=none;endFill=0;align=left;exitPerimeter=0;" parent="1" source="zgFBOHbYYg9-DIr8KNFz-1" edge="1">
          <mxGeometry x="0.6567" relative="1" as="geometry">
            <mxPoint x="79" y="434" as="targetPoint" />
            <mxPoint x="140" y="435" as="sourcePoint" />
            <mxPoint as="offset" />
          </mxGeometry>
        </mxCell>
        <mxCell id="zgFBOHbYYg9-DIr8KNFz-16" value="" style="endArrow=none;html=1;rounded=0;" parent="1" edge="1">
          <mxGeometry width="50" height="50" relative="1" as="geometry">
            <mxPoint x="120" y="440" as="sourcePoint" />
            <mxPoint x="130" y="430" as="targetPoint" />
          </mxGeometry>
        </mxCell>
        <mxCell id="zgFBOHbYYg9-DIr8KNFz-48" value="ptrs" style="edgeStyle=orthogonalEdgeStyle;rounded=0;orthogonalLoop=1;jettySize=auto;html=1;exitX=0.5;exitY=0;exitDx=0;exitDy=0;startArrow=classic;startFill=1;endArrow=none;endFill=0;" parent="1" source="zgFBOHbYYg9-DIr8KNFz-20" edge="1">
          <mxGeometry x="0.7647" relative="1" as="geometry">
            <mxPoint x="465" y="286" as="targetPoint" />
            <mxPoint as="offset" />
          </mxGeometry>
        </mxCell>
        <mxCell id="zgFBOHbYYg9-DIr8KNFz-41" value="ptrs" style="edgeStyle=orthogonalEdgeStyle;rounded=0;orthogonalLoop=1;jettySize=auto;html=1;exitX=0;exitY=0.5;exitDx=0;exitDy=0;" parent="1" source="zgFBOHbYYg9-DIr8KNFz-21" edge="1">
          <mxGeometry x="-0.192" relative="1" as="geometry">
            <mxPoint x="521" y="260" as="targetPoint" />
            <mxPoint as="offset" />
          </mxGeometry>
        </mxCell>
        <mxCell id="zgFBOHbYYg9-DIr8KNFz-21" value="&lt;div&gt;Формирование указателей&lt;/div&gt;" style="rounded=0;whiteSpace=wrap;html=1;" parent="1" vertex="1">
          <mxGeometry x="570" y="230" width="120" height="60" as="geometry" />
        </mxCell>
        <mxCell id="zgFBOHbYYg9-DIr8KNFz-37" value="flags" style="edgeStyle=orthogonalEdgeStyle;rounded=0;orthogonalLoop=1;jettySize=auto;html=1;exitX=1;exitY=0.5;exitDx=0;exitDy=0;align=left;" parent="1" source="zgFBOHbYYg9-DIr8KNFz-22" edge="1">
          <mxGeometry x="-0.6694" relative="1" as="geometry">
            <mxPoint x="390" y="469" as="targetPoint" />
            <mxPoint as="offset" />
          </mxGeometry>
        </mxCell>
        <mxCell id="zgFBOHbYYg9-DIr8KNFz-22" value="&lt;div&gt;Формирование флагов&lt;/div&gt;" style="rounded=0;whiteSpace=wrap;html=1;" parent="1" vertex="1">
          <mxGeometry x="201" y="440" width="120" height="60" as="geometry" />
        </mxCell>
        <mxCell id="VdVjK1kCtp9QFzzRZPT6-48" value="mstrs nmbr" style="edgeStyle=orthogonalEdgeStyle;rounded=0;orthogonalLoop=1;jettySize=auto;html=1;exitX=0;exitY=0.5;exitDx=0;exitDy=0;align=right;" parent="1" source="zgFBOHbYYg9-DIr8KNFz-23" edge="1">
          <mxGeometry x="-0.8803" relative="1" as="geometry">
            <mxPoint x="472" y="470" as="targetPoint" />
            <mxPoint as="offset" />
          </mxGeometry>
        </mxCell>
        <mxCell id="zgFBOHbYYg9-DIr8KNFz-23" value="Комб. схемы формирования номера мастера в маске" style="rounded=0;whiteSpace=wrap;html=1;direction=east;" parent="1" vertex="1">
          <mxGeometry x="550" y="440" width="155" height="60" as="geometry" />
        </mxCell>
        <mxCell id="zgFBOHbYYg9-DIr8KNFz-29" value="new_masks" style="edgeStyle=orthogonalEdgeStyle;rounded=0;orthogonalLoop=1;jettySize=auto;html=1;align=center;entryX=0;entryY=0.25;entryDx=0;entryDy=0;" parent="1" source="zgFBOHbYYg9-DIr8KNFz-24" target="zgFBOHbYYg9-DIr8KNFz-20" edge="1">
          <mxGeometry x="-0.049" relative="1" as="geometry">
            <mxPoint x="361" y="380" as="targetPoint" />
            <Array as="points" />
            <mxPoint as="offset" />
          </mxGeometry>
        </mxCell>
        <mxCell id="zgFBOHbYYg9-DIr8KNFz-24" value="Формирование новой маски" style="rounded=0;whiteSpace=wrap;html=1;" parent="1" vertex="1">
          <mxGeometry x="200" y="277" width="120" height="60" as="geometry" />
        </mxCell>
        <mxCell id="zgFBOHbYYg9-DIr8KNFz-30" value="regs" style="edgeStyle=orthogonalEdgeStyle;rounded=0;orthogonalLoop=1;jettySize=auto;html=1;exitX=0;exitY=0.5;exitDx=0;exitDy=0;" parent="1" source="zgFBOHbYYg9-DIr8KNFz-25" edge="1">
          <mxGeometry relative="1" as="geometry">
            <mxPoint x="509" y="380" as="targetPoint" />
          </mxGeometry>
        </mxCell>
        <mxCell id="zgFBOHbYYg9-DIr8KNFz-25" value="Формирование вспомогательных регистров" style="rounded=0;whiteSpace=wrap;html=1;" parent="1" vertex="1">
          <mxGeometry x="570" y="350" width="120" height="60" as="geometry" />
        </mxCell>
        <mxCell id="zgFBOHbYYg9-DIr8KNFz-38" value="" style="endArrow=none;html=1;rounded=0;" parent="1" edge="1">
          <mxGeometry width="50" height="50" relative="1" as="geometry">
            <mxPoint x="361" y="475" as="sourcePoint" />
            <mxPoint x="371" y="465" as="targetPoint" />
          </mxGeometry>
        </mxCell>
        <mxCell id="zgFBOHbYYg9-DIr8KNFz-39" value="list&#39;s mask" style="edgeStyle=orthogonalEdgeStyle;rounded=0;orthogonalLoop=1;jettySize=auto;html=1;align=center;entryX=0.5;entryY=1;entryDx=0;entryDy=0;startArrow=classic;startFill=1;endArrow=none;endFill=0;" parent="1" target="zgFBOHbYYg9-DIr8KNFz-20" edge="1">
          <mxGeometry x="0.5" relative="1" as="geometry">
            <mxPoint x="450" y="440" as="targetPoint" />
            <mxPoint x="465" y="450" as="sourcePoint" />
            <mxPoint as="offset" />
            <Array as="points">
              <mxPoint x="465" y="450" />
            </Array>
          </mxGeometry>
        </mxCell>
        <mxCell id="zgFBOHbYYg9-DIr8KNFz-40" value="" style="endArrow=none;html=1;rounded=0;" parent="1" edge="1">
          <mxGeometry width="50" height="50" relative="1" as="geometry">
            <mxPoint x="460" y="440" as="sourcePoint" />
            <mxPoint x="470" y="430" as="targetPoint" />
          </mxGeometry>
        </mxCell>
        <mxCell id="zgFBOHbYYg9-DIr8KNFz-42" value="" style="endArrow=none;html=1;rounded=0;" parent="1" edge="1">
          <mxGeometry width="50" height="50" relative="1" as="geometry">
            <mxPoint x="531" y="265" as="sourcePoint" />
            <mxPoint x="541" y="255" as="targetPoint" />
          </mxGeometry>
        </mxCell>
        <mxCell id="zgFBOHbYYg9-DIr8KNFz-49" value="" style="endArrow=none;html=1;rounded=0;" parent="1" edge="1">
          <mxGeometry width="50" height="50" relative="1" as="geometry">
            <mxPoint x="460" y="308" as="sourcePoint" />
            <mxPoint x="470" y="298" as="targetPoint" />
          </mxGeometry>
        </mxCell>
        <mxCell id="zgFBOHbYYg9-DIr8KNFz-50" value="" style="endArrow=none;html=1;rounded=0;" parent="1" edge="1">
          <mxGeometry width="50" height="50" relative="1" as="geometry">
            <mxPoint x="399" y="348" as="sourcePoint" />
            <mxPoint x="409" y="338" as="targetPoint" />
          </mxGeometry>
        </mxCell>
        <mxCell id="VdVjK1kCtp9QFzzRZPT6-1" value="" style="endArrow=none;html=1;rounded=0;" parent="1" edge="1">
          <mxGeometry width="50" height="50" relative="1" as="geometry">
            <mxPoint x="520" y="385" as="sourcePoint" />
            <mxPoint x="530" y="375" as="targetPoint" />
          </mxGeometry>
        </mxCell>
        <mxCell id="VdVjK1kCtp9QFzzRZPT6-5" value="ptrs" style="edgeStyle=orthogonalEdgeStyle;rounded=0;orthogonalLoop=1;jettySize=auto;html=1;exitX=0.295;exitY=-0.002;exitDx=0;exitDy=0;startArrow=classic;startFill=1;endArrow=none;endFill=0;exitPerimeter=0;" parent="1" edge="1">
          <mxGeometry x="0.2327" relative="1" as="geometry">
            <mxPoint x="240.74" y="391.12" as="targetPoint" />
            <mxPoint as="offset" />
            <mxPoint x="241.1400000000001" y="440" as="sourcePoint" />
          </mxGeometry>
        </mxCell>
        <mxCell id="VdVjK1kCtp9QFzzRZPT6-6" value="" style="endArrow=none;html=1;rounded=0;" parent="1" edge="1">
          <mxGeometry width="50" height="50" relative="1" as="geometry">
            <mxPoint x="236" y="430" as="sourcePoint" />
            <mxPoint x="246" y="420" as="targetPoint" />
          </mxGeometry>
        </mxCell>
        <mxCell id="VdVjK1kCtp9QFzzRZPT6-9" value="flags" style="edgeStyle=orthogonalEdgeStyle;rounded=0;orthogonalLoop=1;jettySize=auto;html=1;exitX=1;exitY=0.5;exitDx=0;exitDy=0;align=left;" parent="1" edge="1">
          <mxGeometry x="-0.6694" relative="1" as="geometry">
            <mxPoint x="420" y="380" as="targetPoint" />
            <mxPoint as="offset" />
            <mxPoint x="360" y="380" as="sourcePoint" />
          </mxGeometry>
        </mxCell>
        <mxCell id="VdVjK1kCtp9QFzzRZPT6-10" value="" style="endArrow=none;html=1;rounded=0;" parent="1" edge="1">
          <mxGeometry width="50" height="50" relative="1" as="geometry">
            <mxPoint x="400" y="385" as="sourcePoint" />
            <mxPoint x="410" y="375" as="targetPoint" />
          </mxGeometry>
        </mxCell>
        <mxCell id="VdVjK1kCtp9QFzzRZPT6-11" value="list&#39;s mask" style="edgeStyle=orthogonalEdgeStyle;rounded=0;orthogonalLoop=1;jettySize=auto;html=1;align=center;entryX=0.5;entryY=1;entryDx=0;entryDy=0;startArrow=classic;startFill=1;endArrow=none;endFill=0;" parent="1" edge="1">
          <mxGeometry x="0.1915" relative="1" as="geometry">
            <mxPoint x="236" y="230" as="targetPoint" />
            <mxPoint x="236" y="277" as="sourcePoint" />
            <mxPoint as="offset" />
            <Array as="points">
              <mxPoint x="236" y="270" />
              <mxPoint x="236" y="270" />
            </Array>
          </mxGeometry>
        </mxCell>
        <mxCell id="VdVjK1kCtp9QFzzRZPT6-12" value="" style="endArrow=none;html=1;rounded=0;" parent="1" edge="1">
          <mxGeometry width="50" height="50" relative="1" as="geometry">
            <mxPoint x="230" y="266" as="sourcePoint" />
            <mxPoint x="240" y="256" as="targetPoint" />
          </mxGeometry>
        </mxCell>
        <mxCell id="VdVjK1kCtp9QFzzRZPT6-15" value="regs" style="edgeStyle=orthogonalEdgeStyle;rounded=0;orthogonalLoop=1;jettySize=auto;html=1;exitX=0.5;exitY=0;exitDx=0;exitDy=0;startArrow=classic;startFill=1;endArrow=none;endFill=0;" parent="1" edge="1">
          <mxGeometry x="0.3043" relative="1" as="geometry">
            <mxPoint x="285" y="231" as="targetPoint" />
            <mxPoint as="offset" />
            <mxPoint x="285" y="277" as="sourcePoint" />
          </mxGeometry>
        </mxCell>
        <mxCell id="VdVjK1kCtp9QFzzRZPT6-16" value="" style="endArrow=none;html=1;rounded=0;" parent="1" edge="1">
          <mxGeometry width="50" height="50" relative="1" as="geometry">
            <mxPoint x="280" y="267" as="sourcePoint" />
            <mxPoint x="290" y="257" as="targetPoint" />
          </mxGeometry>
        </mxCell>
        <mxCell id="VdVjK1kCtp9QFzzRZPT6-21" value="ptrs" style="edgeStyle=orthogonalEdgeStyle;rounded=0;orthogonalLoop=1;jettySize=auto;html=1;exitX=0;exitY=0.25;exitDx=0;exitDy=0;startArrow=none;startFill=0;endArrow=classic;endFill=1;align=right;entryX=0;entryY=0.25;entryDx=0;entryDy=0;" parent="1" edge="1">
          <mxGeometry x="-0.875" relative="1" as="geometry">
            <mxPoint x="705" y="455" as="targetPoint" />
            <mxPoint as="offset" />
            <mxPoint x="753" y="455" as="sourcePoint" />
          </mxGeometry>
        </mxCell>
        <mxCell id="VdVjK1kCtp9QFzzRZPT6-22" value="" style="endArrow=none;html=1;rounded=0;" parent="1" edge="1">
          <mxGeometry width="50" height="50" relative="1" as="geometry">
            <mxPoint x="716" y="461" as="sourcePoint" />
            <mxPoint x="726" y="451" as="targetPoint" />
          </mxGeometry>
        </mxCell>
        <mxCell id="VdVjK1kCtp9QFzzRZPT6-23" value="list&#39;s mask" style="edgeStyle=orthogonalEdgeStyle;rounded=0;orthogonalLoop=1;jettySize=auto;html=1;exitX=0;exitY=0.25;exitDx=0;exitDy=0;startArrow=none;startFill=0;endArrow=classic;endFill=1;align=right;" parent="1" edge="1">
          <mxGeometry x="-0.7647" relative="1" as="geometry">
            <mxPoint x="705" y="485" as="targetPoint" />
            <mxPoint as="offset" />
            <mxPoint x="790" y="485" as="sourcePoint" />
          </mxGeometry>
        </mxCell>
        <mxCell id="VdVjK1kCtp9QFzzRZPT6-24" value="" style="endArrow=none;html=1;rounded=0;" parent="1" edge="1">
          <mxGeometry width="50" height="50" relative="1" as="geometry">
            <mxPoint x="717" y="490" as="sourcePoint" />
            <mxPoint x="727" y="480" as="targetPoint" />
          </mxGeometry>
        </mxCell>
        <mxCell id="VdVjK1kCtp9QFzzRZPT6-26" value="regs" style="edgeStyle=orthogonalEdgeStyle;rounded=0;orthogonalLoop=1;jettySize=auto;html=1;exitX=0;exitY=0.5;exitDx=0;exitDy=0;startArrow=none;startFill=0;endArrow=classic;endFill=1;align=right;entryX=0;entryY=0.5;entryDx=0;entryDy=0;" parent="1" edge="1">
          <mxGeometry x="-1" relative="1" as="geometry">
            <mxPoint x="705" y="470" as="targetPoint" />
            <mxPoint as="offset" />
            <mxPoint x="759.9999999999998" y="470" as="sourcePoint" />
            <Array as="points">
              <mxPoint x="740" y="470" />
              <mxPoint x="740" y="470" />
            </Array>
          </mxGeometry>
        </mxCell>
        <mxCell id="VdVjK1kCtp9QFzzRZPT6-27" value="&amp;nbsp;" style="endArrow=none;html=1;rounded=0;" parent="1" edge="1">
          <mxGeometry width="50" height="50" relative="1" as="geometry">
            <mxPoint x="717" y="474" as="sourcePoint" />
            <mxPoint x="727" y="464" as="targetPoint" />
          </mxGeometry>
        </mxCell>
        <mxCell id="VdVjK1kCtp9QFzzRZPT6-28" value="last_i" style="edgeStyle=orthogonalEdgeStyle;rounded=0;orthogonalLoop=1;jettySize=auto;html=1;exitX=0.295;exitY=-0.002;exitDx=0;exitDy=0;startArrow=classic;startFill=1;endArrow=none;endFill=0;exitPerimeter=0;" parent="1" edge="1">
          <mxGeometry x="0.2317" relative="1" as="geometry">
            <mxPoint x="266" y="391" as="targetPoint" />
            <mxPoint as="offset" />
            <mxPoint x="266" y="440" as="sourcePoint" />
          </mxGeometry>
        </mxCell>
        <mxCell id="VdVjK1kCtp9QFzzRZPT6-29" value="" style="endArrow=none;html=1;rounded=0;" parent="1" edge="1">
          <mxGeometry width="50" height="50" relative="1" as="geometry">
            <mxPoint x="261" y="430" as="sourcePoint" />
            <mxPoint x="271" y="420" as="targetPoint" />
          </mxGeometry>
        </mxCell>
        <mxCell id="VdVjK1kCtp9QFzzRZPT6-31" value="id_o" style="edgeStyle=orthogonalEdgeStyle;rounded=0;orthogonalLoop=1;jettySize=auto;html=1;" parent="1" edge="1">
          <mxGeometry x="-0.208" relative="1" as="geometry">
            <mxPoint x="296" y="440" as="targetPoint" />
            <mxPoint as="offset" />
            <mxPoint x="296" y="394" as="sourcePoint" />
          </mxGeometry>
        </mxCell>
        <mxCell id="VdVjK1kCtp9QFzzRZPT6-32" value="" style="endArrow=none;html=1;rounded=0;" parent="1" edge="1">
          <mxGeometry width="50" height="50" relative="1" as="geometry">
            <mxPoint x="291" y="430" as="sourcePoint" />
            <mxPoint x="301" y="420" as="targetPoint" />
          </mxGeometry>
        </mxCell>
        <mxCell id="VdVjK1kCtp9QFzzRZPT6-33" value="regs" style="edgeStyle=orthogonalEdgeStyle;rounded=0;orthogonalLoop=1;jettySize=auto;html=1;exitX=0.5;exitY=0;exitDx=0;exitDy=0;startArrow=classic;startFill=1;endArrow=none;endFill=0;" parent="1" edge="1">
          <mxGeometry x="0.3043" relative="1" as="geometry">
            <mxPoint x="216" y="394" as="targetPoint" />
            <mxPoint as="offset" />
            <mxPoint x="216" y="440" as="sourcePoint" />
          </mxGeometry>
        </mxCell>
        <mxCell id="VdVjK1kCtp9QFzzRZPT6-34" value="" style="endArrow=none;html=1;rounded=0;" parent="1" edge="1">
          <mxGeometry width="50" height="50" relative="1" as="geometry">
            <mxPoint x="211" y="430" as="sourcePoint" />
            <mxPoint x="221" y="420" as="targetPoint" />
          </mxGeometry>
        </mxCell>
        <mxCell id="VdVjK1kCtp9QFzzRZPT6-40" value="list&#39;s mask" style="edgeStyle=orthogonalEdgeStyle;rounded=0;orthogonalLoop=1;jettySize=auto;html=1;align=center;entryX=0.5;entryY=1;entryDx=0;entryDy=0;startArrow=classic;startFill=1;endArrow=none;endFill=0;" parent="1" edge="1">
          <mxGeometry x="0.1915" relative="1" as="geometry">
            <mxPoint x="666" y="303" as="targetPoint" />
            <mxPoint x="666" y="350" as="sourcePoint" />
            <mxPoint as="offset" />
            <Array as="points">
              <mxPoint x="666" y="343" />
              <mxPoint x="666" y="343" />
            </Array>
          </mxGeometry>
        </mxCell>
        <mxCell id="VdVjK1kCtp9QFzzRZPT6-41" value="" style="endArrow=none;html=1;rounded=0;" parent="1" edge="1">
          <mxGeometry width="50" height="50" relative="1" as="geometry">
            <mxPoint x="660" y="339" as="sourcePoint" />
            <mxPoint x="670" y="329" as="targetPoint" />
          </mxGeometry>
        </mxCell>
        <mxCell id="VdVjK1kCtp9QFzzRZPT6-43" value="requests_mask_i" style="edgeStyle=orthogonalEdgeStyle;rounded=0;orthogonalLoop=1;jettySize=auto;html=1;align=center;entryX=0.5;entryY=1;entryDx=0;entryDy=0;startArrow=classic;startFill=1;endArrow=none;endFill=0;" parent="1" edge="1">
          <mxGeometry x="0.1915" relative="1" as="geometry">
            <mxPoint x="586" y="303" as="targetPoint" />
            <mxPoint x="586" y="350" as="sourcePoint" />
            <mxPoint as="offset" />
            <Array as="points">
              <mxPoint x="586" y="343" />
              <mxPoint x="586" y="343" />
            </Array>
          </mxGeometry>
        </mxCell>
        <mxCell id="VdVjK1kCtp9QFzzRZPT6-44" value="" style="endArrow=none;html=1;rounded=0;" parent="1" edge="1">
          <mxGeometry width="50" height="50" relative="1" as="geometry">
            <mxPoint x="580" y="339" as="sourcePoint" />
            <mxPoint x="590" y="329" as="targetPoint" />
          </mxGeometry>
        </mxCell>
        <mxCell id="VdVjK1kCtp9QFzzRZPT6-45" value="flags" style="edgeStyle=orthogonalEdgeStyle;rounded=0;orthogonalLoop=1;jettySize=auto;html=1;exitX=1;exitY=0.5;exitDx=0;exitDy=0;align=right;startArrow=classic;startFill=1;endArrow=none;endFill=0;" parent="1" edge="1">
          <mxGeometry x="0.6667" relative="1" as="geometry">
            <mxPoint x="750" y="380" as="targetPoint" />
            <mxPoint as="offset" />
            <mxPoint x="690" y="380" as="sourcePoint" />
          </mxGeometry>
        </mxCell>
        <mxCell id="VdVjK1kCtp9QFzzRZPT6-46" value="" style="endArrow=none;html=1;rounded=0;" parent="1" edge="1">
          <mxGeometry width="50" height="50" relative="1" as="geometry">
            <mxPoint x="701" y="385" as="sourcePoint" />
            <mxPoint x="711" y="375" as="targetPoint" />
          </mxGeometry>
        </mxCell>
        <mxCell id="VdVjK1kCtp9QFzzRZPT6-49" value="" style="endArrow=none;html=1;rounded=0;" parent="1" edge="1">
          <mxGeometry width="50" height="50" relative="1" as="geometry">
            <mxPoint x="482" y="475" as="sourcePoint" />
            <mxPoint x="492" y="465" as="targetPoint" />
          </mxGeometry>
        </mxCell>
        <mxCell id="VdVjK1kCtp9QFzzRZPT6-50" value="flags" style="edgeStyle=orthogonalEdgeStyle;rounded=0;orthogonalLoop=1;jettySize=auto;html=1;exitX=1;exitY=0.5;exitDx=0;exitDy=0;align=right;startArrow=classic;startFill=1;endArrow=none;endFill=0;" parent="1" edge="1">
          <mxGeometry x="0.6667" relative="1" as="geometry">
            <mxPoint x="750" y="245" as="targetPoint" />
            <mxPoint as="offset" />
            <mxPoint x="690" y="245" as="sourcePoint" />
          </mxGeometry>
        </mxCell>
        <mxCell id="VdVjK1kCtp9QFzzRZPT6-51" value="" style="endArrow=none;html=1;rounded=0;" parent="1" edge="1">
          <mxGeometry width="50" height="50" relative="1" as="geometry">
            <mxPoint x="701" y="250" as="sourcePoint" />
            <mxPoint x="711" y="240" as="targetPoint" />
          </mxGeometry>
        </mxCell>
        <mxCell id="VdVjK1kCtp9QFzzRZPT6-52" value="mstrs nmbr" style="edgeStyle=orthogonalEdgeStyle;rounded=0;orthogonalLoop=1;jettySize=auto;html=1;exitX=0;exitY=0.5;exitDx=0;exitDy=0;align=right;" parent="1" edge="1">
          <mxGeometry x="-0.8803" relative="1" as="geometry">
            <mxPoint x="690" y="270" as="targetPoint" />
            <mxPoint x="773" y="270" as="sourcePoint" />
            <mxPoint as="offset" />
          </mxGeometry>
        </mxCell>
        <mxCell id="VdVjK1kCtp9QFzzRZPT6-53" value="" style="endArrow=none;html=1;rounded=0;" parent="1" edge="1">
          <mxGeometry width="50" height="50" relative="1" as="geometry">
            <mxPoint x="700" y="275" as="sourcePoint" />
            <mxPoint x="710" y="265" as="targetPoint" />
          </mxGeometry>
        </mxCell>
      </root>
    </mxGraphModel>
  </diagram>
</mxfile>
